<?xml version="1.0" encoding="UTF-8" standalone="no"?>
<!DOCTYPE svg PUBLIC "-//W3C//DTD SVG 1.1//EN" "http://www.w3.org/Graphics/SVG/1.1/DTD/svg11.dtd">
<svg width="100%" height="100%" viewBox="0 0 640 300" version="1.1" xmlns="http://www.w3.org/2000/svg" xmlns:xlink="http://www.w3.org/1999/xlink" xml:space="preserve" style="fill-rule:evenodd;clip-rule:evenodd;">
    <g id="svg_8" transform="matrix(0.842311,-0.538991,0.538991,0.842311,-131.275,60.4439)">
        <g id="layer1">
            <path id="path1890" d="M492.99,575.23C491.983,571.936 485.293,549.463 478.123,525.288L465.087,481.335L480.103,463.117C488.363,453.097 495.12,442.157 495.12,438.805C495.12,428.389 479.105,432.457 461.767,447.277C442.895,463.408 423.262,466.27 423.262,452.89C423.262,448.179 429.641,436.862 437.439,427.739C445.236,418.617 451.703,409.536 451.81,407.56C452.237,399.686 438.653,404.663 427.69,416.399C409.503,435.866 392.72,443.141 382.773,435.868C375.293,430.398 376.535,427.646 396.51,405.428C416.213,383.514 423.405,370.434 415.753,370.434C414.258,370.434 401.125,380.134 386.57,391.991C358.111,415.174 334.664,420.647 328.839,405.467C326.63,399.71 332.186,391.711 348.152,377.662C369.452,358.919 376.425,346.481 365.634,346.481C362.922,346.481 349.971,354.964 336.854,365.332C308.669,387.611 295.971,392.474 286.501,384.614C275.898,375.815 277.622,371.9 303.498,346.024C316.672,332.85 327.45,320.019 327.45,317.509C327.45,307.329 310.565,314.044 291.143,331.947C270.074,351.367 251.652,359.251 238.836,354.334C227.585,350.016 230.039,344.216 253.197,320.388C265.053,308.189 274.754,295.179 274.754,291.477C274.754,282.486 256.072,269.832 242.798,269.832C233.838,269.832 230.828,274.491 223.949,299.008C213.112,337.628 204.863,340.832 167.773,320.828C114.26,291.968 54.393,224.828 54.393,193.678C54.393,181.341 77.283,162.779 118.605,141.605C150.508,125.258 155.876,124.068 205.875,122.257C251.833,120.592 262.197,121.674 281.326,130.136C293.523,135.531 303.502,142.888 303.502,146.484C303.502,150.081 295.956,165.554 286.735,180.868C277.513,196.182 269.968,211.716 269.968,215.388C269.968,221.638 296.419,241.028 305,241.067C307.141,241.077 315.173,227.235 322.849,210.306C336.213,180.833 349.294,169.186 360.945,176.386C369.735,181.819 366.299,225.387 355.294,248.038C344.655,269.936 345.797,280.449 357.737,270.539C361.346,267.544 368.081,256.707 372.703,246.457C381.251,227.501 399.227,213.553 408.069,219.018C419.902,226.331 419.134,250.396 406.144,279.342C391.913,311.051 394.435,323.453 410.649,301.5C431.812,272.847 436.902,267.523 440.095,270.703C445.716,276.302 418.684,320.264 389.188,353.492C373.678,370.965 360.988,386.235 360.988,387.426C360.988,394.792 374.528,386.391 397.17,364.978C422.739,340.796 447.218,299.226 447.218,279.989C447.218,274.712 449.389,269.052 452.043,267.413C461.356,261.657 463.065,281.008 455.133,302.408C445.286,328.978 447.693,332.765 462.069,313.32C475.331,295.383 482.257,294.736 489.556,310.756C494.15,320.838 493.456,326.176 485.535,341.703C468.298,375.49 476.732,388.687 496.278,358.513C502.23,349.324 509.65,341.779 512.766,341.746C522.254,341.647 525.297,361.165 518.843,380.721C515.485,390.896 514.281,400.765 516.167,402.652C520.82,407.305 528.494,394.366 528.585,381.717C528.652,372.332 531.863,371.22 565.785,368.833C586.205,367.396 609.89,364.771 618.42,363C638.762,358.776 658.003,363.872 658.003,373.485C658.003,377.699 636.283,402.882 609.736,429.448C568.043,471.17 558.5,483.852 539.671,522.555C518.063,566.975 508.292,581.215 499.422,581.215C496.893,581.215 494,578.52 492.994,575.227L492.99,575.23ZM521.984,520.982C524.701,510.16 502.506,480.616 491.658,480.616C483.883,480.616 483.94,481.565 493.481,511.112C497.849,524.64 502.314,538.941 503.404,542.894C505.008,548.71 506.73,548.253 512.437,540.498C516.316,535.229 520.612,526.446 521.984,520.982L521.984,520.982ZM538.235,483.18C538.235,479.321 533.924,473.855 528.654,471.035C517.869,465.263 516.833,467.48 524.032,480.931C529.88,491.858 538.235,493.181 538.235,483.18ZM557.397,451.472C557.397,445.78 533.238,436.106 529.187,440.175C525.08,444.3 547.861,461.992 553.106,458.75C555.466,457.292 557.397,454.016 557.397,451.472ZM584.81,429.524C586.674,423.924 581.676,421.711 555.002,416.33L540.63,413.431L555.002,425.516C569.705,437.879 581.5,439.465 584.81,429.524ZM497.355,392.856C505.334,379.841 505.314,379.56 496.785,385.114C491.917,388.285 480.551,400.83 471.528,412.992L455.122,435.106L472.098,420.734C481.435,412.83 492.801,400.285 497.355,392.856L497.355,392.856ZM616.695,391.323C625.498,379.246 625.498,379.034 616.695,381.5C611.746,382.886 594.763,385.617 578.954,387.569L550.21,391.118L569.373,397.174C597.7,406.128 606.715,405.013 616.695,391.323ZM442.915,388.23C451.709,381.532 472.969,341.901 469.584,338.516C467.322,336.254 450.811,356.825 435.315,381.212C426.535,395.03 429.904,398.14 442.915,388.23ZM360.357,324.899C374.957,308.27 399.372,264.261 406.187,242.286C408.578,234.574 407.58,231.507 402.679,231.507C398.91,231.507 389.186,244.981 381.069,261.448C372.952,277.916 357.566,303.096 346.878,317.405C336.189,331.714 327.444,345.263 327.444,347.514C327.444,354.596 344.684,342.75 360.357,324.899ZM311.31,293.004C327.258,276.012 356.188,220.384 356.188,206.711C356.188,192.481 346.792,192.07 341.487,206.069C331.07,233.56 307.49,276.103 288.193,302.225C269.855,327.048 269.396,328.362 282.304,319.069C290.005,313.525 303.058,301.796 311.31,293.004L311.31,293.004ZM207.39,288.7C211.528,277.005 219.811,258.813 225.796,248.274C253.52,199.454 262.402,184.885 273.504,170.022C288.895,149.417 284.339,145.033 243.097,140.764C205.225,136.844 172.607,141.148 135.647,154.943C109.834,164.577 78.308,185.404 83.125,189.64C84.442,190.799 104.383,203.939 127.438,218.841C150.492,233.743 169.355,247.815 169.355,250.111C169.355,252.408 166.215,256.893 162.378,260.077C156.709,264.782 150.213,262.153 127.727,246.051C97.671,224.528 87.614,227.703 110.143,251.603C128.08,270.632 188.956,313.599 195.085,311.556C197.713,310.68 203.249,300.395 207.388,288.7L207.39,288.7ZM293.913,259.968C293.913,257.489 291.757,255.46 289.122,255.46C286.487,255.46 284.331,258.821 284.331,262.929C284.331,267.036 286.487,269.065 289.122,267.436C291.757,265.808 293.913,262.447 293.913,259.968ZM265.169,243.201C265.169,242.039 263.013,241.088 260.379,241.088C257.744,241.088 255.588,243.371 255.588,246.162C255.588,248.952 257.744,249.903 260.379,248.274C263.013,246.646 265.169,244.363 265.169,243.201Z" style="fill:rgb(230,155,82);fill-rule:nonzero;stroke:rgb(255,94,1);stroke-width:4px;"/>
        </g>
        <g id="g13" transform="matrix(1,0,0,1,11.2042,5.7519)">
            <g id="g11">
                <path id="svg_6" d="M149.3,186.48C151.3,185.48 152.3,185.48 153.3,184.48C154.3,183.48 155.486,183.787 157.3,182.48C158.447,181.653 160.376,179.863 161.3,179.48C162.607,178.939 162.993,178.021 164.3,177.48C165.224,177.097 166.3,177.48 167.3,177.48C168.3,177.48 168.376,176.863 169.3,176.48C170.607,175.939 172.3,175.48 173.3,175.48C175.3,175.48 178.3,174.48 179.3,174.48L186.3,174.48C187.3,174.48 188.3,173.48 189.3,173.48L206.3,173.48C207.3,173.48 207.3,172.48 208.3,172.48L220.3,172.48" style="fill:none;fill-rule:nonzero;stroke:rgb(230,155,82);stroke-width:20px;"/>
                <path id="svg_7" d="M174.3,154.48C175.3,154.48 176.593,154.773 177.3,155.48C178.007,156.187 177.593,156.773 178.3,157.48C179.007,158.187 180.3,158.48 180.3,159.48C180.3,160.48 180.593,161.773 181.3,162.48C182.007,163.187 183.3,163.48 183.3,164.48C183.3,165.48 184.3,165.48 184.3,166.48C184.3,167.48 184.593,168.773 185.3,169.48C186.007,170.187 186.3,170.48 186.3,171.48C186.3,172.48 187.3,172.48 187.3,173.48C187.3,174.48 187.3,175.48 188.3,175.48C188.3,175.48 187.593,176.773 188.3,177.48C189.007,178.187 189.759,178.173 190.3,179.48C190.683,180.404 190.593,180.773 191.3,181.48C192.007,182.187 191.917,183.556 192.3,184.48C192.841,185.787 193.759,186.173 194.3,187.48C194.683,188.404 194.3,189.48 194.3,190.48C194.3,191.48 194.917,191.556 195.3,192.48C195.841,193.787 196.593,193.773 197.3,194.48C198.007,195.187 197.3,196.48 197.3,197.48C197.3,198.48 198.3,198.48 198.3,199.48C198.3,200.48 199.3,200.48 199.3,201.48L200.3,202.48L200.3,208.48" style="fill:none;fill-rule:nonzero;stroke:rgb(230,155,82);stroke-width:20px;"/>
            </g>
        </g>
    </g>
</svg>
